HIERARCHY
ROOT joint_Root
{
	OFFSET 0.0 0.0 0.0
	CHANNELS 6 Xposition Yposition Zposition Zrotation Xrotation Yrotation 
	JOINT Hips
	{
		OFFSET -0.726466 93.3139 -2.00062
		CHANNELS 6 Xposition Yposition Zposition Zrotation Xrotation Yrotation 
		JOINT Spine
		{
			OFFSET 15.7357 0.0 0.0
			CHANNELS 6 Xposition Yposition Zposition Zrotation Xrotation Yrotation 
			JOINT Chest
			{
				OFFSET 8.98455 -0.406207 0.0
				CHANNELS 6 Xposition Yposition Zposition Zrotation Xrotation Yrotation 
				JOINT Neck
				{
					OFFSET 16.3773 0.0 0.0
					CHANNELS 6 Xposition Yposition Zposition Zrotation Xrotation Yrotation 
					JOINT Head
					{
						OFFSET 6.45672 0.0 0.0
						CHANNELS 6 Xposition Yposition Zposition Zrotation Xrotation Yrotation 
						End Site
						{
							OFFSET 0.0 0.0 0.0
						}
					}
				}
				JOINT Shoulder_L
				{
					OFFSET 12.9942 -0.242716 4.98039
					CHANNELS 6 Xposition Yposition Zposition Zrotation Xrotation Yrotation 
					JOINT UpperArm_L
					{
						OFFSET 5.34809 0.0 0.0
						CHANNELS 6 Xposition Yposition Zposition Zrotation Xrotation Yrotation 
						JOINT LowerArm_L
						{
							OFFSET 24.3286 1.87007e-05 0.0
							CHANNELS 6 Xposition Yposition Zposition Zrotation Xrotation Yrotation 
							JOINT Hand_L
							{
								OFFSET 22.2916 0.0 0.0
								CHANNELS 6 Xposition Yposition Zposition Zrotation Xrotation Yrotation 
								End Site
								{
									OFFSET 0.0 0.0 0.0
								}
							}
						}
					}
				}
				JOINT Shoulder_R
				{
					OFFSET 12.9945 -0.242716 -4.98039
					CHANNELS 6 Xposition Yposition Zposition Zrotation Xrotation Yrotation 
					JOINT UpperArm_R
					{
						OFFSET -5.34813 0.0 0.0
						CHANNELS 6 Xposition Yposition Zposition Zrotation Xrotation Yrotation 
						JOINT LowerArm_R
						{
							OFFSET -24.3289 0.000322201 0.0
							CHANNELS 6 Xposition Yposition Zposition Zrotation Xrotation Yrotation 
							JOINT Hand_R
							{
								OFFSET -22.2915 -0.000108084 0.0
								CHANNELS 6 Xposition Yposition Zposition Zrotation Xrotation Yrotation 
								End Site
								{
									OFFSET 0.0 0.0 0.0
								}
							}
						}
					}
				}
			}
		}
		JOINT UpperLeg_L
		{
			OFFSET -2.19248 -6.46944 0.0
			CHANNELS 6 Xposition Yposition Zposition Zrotation Xrotation Yrotation 
			JOINT LowerLeg_L
			{
				OFFSET 39.0811 0.0 -1.23785e-05
				CHANNELS 6 Xposition Yposition Zposition Zrotation Xrotation Yrotation 
				JOINT Foot_L
				{
					OFFSET 40.9854 0.0 -1.26872e-05
					CHANNELS 6 Xposition Yposition Zposition Zrotation Xrotation Yrotation 
					JOINT Toes_L
					{
						OFFSET 11.7543 0.0 0.0
						CHANNELS 6 Xposition Yposition Zposition Zrotation Xrotation Yrotation 
						End Site
						{
							OFFSET 0.0 0.0 0.0
						}
					}
				}
			}
		}
		JOINT UpperLeg_R
		{
			OFFSET -2.19251 6.46944 0.0
			CHANNELS 6 Xposition Yposition Zposition Zrotation Xrotation Yrotation 
			JOINT LowerLeg_R
			{
				OFFSET -39.0811 -0.00228153 -0.0401928
				CHANNELS 6 Xposition Yposition Zposition Zrotation Xrotation Yrotation 
				JOINT Foot_R
				{
					OFFSET -40.9854 0.0 0.0
					CHANNELS 6 Xposition Yposition Zposition Zrotation Xrotation Yrotation 
					JOINT Toes_R
					{
						OFFSET -11.7543 0.0 0.0
						CHANNELS 6 Xposition Yposition Zposition Zrotation Xrotation Yrotation 
						End Site
						{
							OFFSET 0.0 0.0 0.0
						}
					}
				}
			}
		}
	}
}
MOTION
Frames:	7
Frame Time:	0.0333333
0.000000 0.000000 0.000000 0.000000 0.000000 -0.000000 141.918000 88.389700 85.092200 -85.923400 18.562100 -179.101000 15.735700 0.000005 -0.000001 103.466000 82.693800 -101.932000 8.984550 -0.406207 -0.000000 6.409770 3.374490 2.875750 16.377300 -0.000001 -0.000001 1.810560 5.534190 1.679900 6.456720 -0.000001 -0.000000 1.676080 7.289080 -1.144730 12.994200 -0.242716 4.980390 -89.041300 -2.495510 -68.977000 5.348090 -0.000007 -0.000001 -66.876500 5.572890 1.850750 24.328600 0.000019 0.000005 1.325810 7.306200 -10.315300 22.291600 -0.000001 0.000005 14.779700 5.366390 -1.877760 12.994500 -0.242716 -4.980390 88.507100 5.376050 -74.455500 -5.348130 -0.000001 -0.000004 -50.620600 16.692600 -39.838100 -24.328900 0.000322 -0.000009 1.939730 3.110110 -31.989300 -22.291500 -0.000108 -0.000004 15.489800 5.431620 -3.994450 -2.192480 -6.469440 -0.000000 179.078000 -12.906800 -26.713900 39.081100 -0.000007 -0.000012 0.017344 -0.088891 11.041000 40.985400 -0.000006 -0.000013 5.963810 -2.235630 -54.832300 11.754300 -0.000000 0.000003 -0.007212 -0.081480 -19.894000 -2.192510 6.469440 -0.000001 175.146000 13.361200 -171.579000 -39.081100 -0.002282 -0.040193 -0.030677 0.060070 29.495600 -40.985400 0.000008 0.000006 3.048750 6.989000 -70.869500 -11.754300 -0.000006 -0.000006 -0.039186 -0.256850 -27.121600
0.000000 0.000000 0.000000 0.000000 0.000000 -0.000000 142.124000 88.157800 80.310400 -87.796000 17.870400 -178.834000 15.735700 0.000005 -0.000001 102.398000 82.883000 -101.563000 8.984550 -0.406207 -0.000000 6.120960 3.035660 1.506320 16.377300 -0.000001 -0.000001 1.760610 5.161820 1.942320 6.456720 -0.000001 -0.000000 1.425010 6.819190 -1.021350 12.994200 -0.242716 4.980390 -89.186400 -2.143550 -69.209900 5.348090 -0.000007 -0.000001 -67.894700 5.299080 1.597750 24.328600 0.000019 0.000005 1.214850 8.437490 -8.224910 22.291600 -0.000001 0.000005 14.384500 5.318530 -0.448244 12.994500 -0.242716 -4.980390 88.344200 5.940590 -74.394500 -5.348130 -0.000001 -0.000004 -51.488100 17.668700 -37.756200 -24.328900 0.000322 -0.000009 1.590710 2.421540 -33.336600 -22.291500 -0.000108 -0.000004 15.814700 5.441970 -4.354740 -2.192480 -6.469440 -0.000000 176.935000 -12.012600 -29.360400 39.081100 -0.000007 -0.000012 0.091033 -0.276827 18.203300 40.985400 -0.000006 -0.000013 6.939080 -3.417680 -47.286100 11.754300 -0.000000 0.000003 -0.007136 -0.080836 -19.867700 -2.192510 6.469440 -0.000001 171.948000 12.633700 -170.911000 -39.081100 -0.002282 -0.040193 -0.008394 0.018223 32.680300 -40.985400 0.000008 0.000006 2.150710 7.374160 -67.708100 -11.754300 -0.000006 -0.000006 -0.083359 -0.401235 -33.245800
0.000000 0.000000 0.000000 0.000000 0.000000 -0.000000 142.274000 88.149100 75.050600 -89.450000 17.752300 -177.948000 15.735700 0.000005 -0.000001 102.317000 82.912600 -102.141000 8.984550 -0.406207 -0.000000 6.084320 3.013000 0.192135 16.377300 -0.000001 -0.000001 1.652270 4.964650 2.050710 6.456720 -0.000001 -0.000000 1.232980 6.420610 -0.801483 12.994200 -0.242716 4.980390 -89.313600 -1.804620 -69.169900 5.348090 -0.000007 -0.000001 -69.353000 6.541430 1.376020 24.328600 0.000019 0.000005 1.259570 9.498090 -7.589250 22.291600 -0.000001 0.000005 12.539000 5.284660 0.507458 12.994500 -0.242716 -4.980390 88.207700 6.429500 -74.387200 -5.348130 -0.000001 -0.000004 -52.791800 19.531300 -34.414800 -24.328900 0.000322 -0.000009 1.097910 1.630290 -33.992000 -22.291500 -0.000108 -0.000004 15.576100 5.453220 -4.756010 -2.192480 -6.469440 -0.000000 175.742000 -10.017800 -29.175000 39.081100 -0.000007 -0.000012 0.084685 -0.191054 23.905300 40.985400 -0.000006 -0.000013 6.433340 -4.042570 -45.110000 11.754300 -0.000000 0.000003 -0.004605 -0.057603 -18.920300 -2.192510 6.469440 -0.000001 169.244000 10.966600 -170.881000 -39.081100 -0.002282 -0.040193 0.055239 -0.068368 37.231500 -40.985400 0.000008 0.000006 2.543950 6.888900 -61.076800 -11.754300 -0.000006 -0.000006 -0.182845 -0.615819 -42.846200
0.000000 0.000000 0.000000 0.000000 0.000000 -0.000000 142.484000 88.225400 69.780800 -89.974100 17.112300 -176.369000 15.735700 0.000005 -0.000001 101.494000 82.591700 -101.531000 8.984550 -0.406207 -0.000000 6.761230 2.943320 -0.246783 16.377300 -0.000001 -0.000001 1.366150 4.796500 1.889210 6.456720 -0.000001 -0.000000 0.957012 6.123440 -0.811452 12.994200 -0.242716 4.980390 -89.302600 -1.839740 -69.236300 5.348090 -0.000007 -0.000001 -71.702200 9.301660 0.621446 24.328600 0.000019 0.000005 1.368700 9.684900 -8.083340 22.291600 -0.000001 0.000005 9.709250 5.290740 0.320976 12.994500 -0.242716 -4.980390 88.264200 6.200460 -74.326600 -5.348130 -0.000001 -0.000004 -55.222300 21.584000 -30.290000 -24.328900 0.000322 -0.000009 1.396620 2.091630 -33.766900 -22.291500 -0.000108 -0.000004 14.609600 5.453910 -4.778340 -2.192480 -6.469440 -0.000000 175.659000 -7.519440 -27.746500 39.081100 -0.000007 -0.000012 0.043995 -0.073281 30.978600 40.985400 -0.000006 -0.000013 5.615490 -6.190800 -50.507000 11.754300 -0.000000 0.000003 -0.001361 -0.020414 -17.406900 -2.192510 6.469440 -0.000001 168.216000 9.628800 -172.353000 -39.081100 -0.002282 -0.040193 0.149096 -0.148197 44.538900 -40.985400 0.000008 0.000006 4.243540 5.470710 -50.447300 -11.754300 -0.000006 -0.000006 -0.254816 -0.729233 -48.294200
0.000000 0.000000 0.000000 0.000000 0.000000 -0.000000 142.571000 88.443700 64.959500 -90.347700 16.727500 -175.231000 15.735700 0.000005 -0.000001 101.265000 82.278200 -101.395000 8.984550 -0.406207 -0.000000 7.391130 3.006040 -0.454298 16.377300 -0.000001 -0.000001 1.240630 4.771750 1.531800 6.456720 -0.000001 -0.000000 0.503345 6.219040 -1.276440 12.994200 -0.242716 4.980390 -89.367900 -1.697220 -69.570500 5.348090 -0.000007 -0.000001 -74.102400 13.055600 -0.745914 24.328600 0.000019 0.000005 1.419990 8.384110 -9.650980 22.291600 -0.000001 0.000005 6.741340 5.319480 -0.486290 12.994500 -0.242716 -4.980390 88.375600 5.802650 -74.331100 -5.348130 -0.000001 -0.000004 -57.480600 24.006600 -26.846900 -24.328900 0.000322 -0.000009 1.975030 3.181420 -31.878100 -22.291500 -0.000108 -0.000004 13.111500 5.449730 -4.627350 -2.192480 -6.469440 -0.000000 174.869000 -7.346600 -25.231100 39.081100 -0.000007 -0.000012 -0.016846 0.024172 34.874600 40.985400 -0.000006 -0.000013 5.577480 -6.467470 -55.927200 11.754300 -0.000000 0.000003 -0.000000 -0.000001 -16.577500 -2.192510 6.469440 -0.000001 168.687000 6.220720 -176.858000 -39.081100 -0.002282 -0.040193 0.187757 -0.136300 53.548500 -40.985400 0.000008 0.000006 2.973990 1.595340 -38.266300 -11.754300 -0.000006 -0.000006 -0.100422 -0.445602 -35.173000
0.000000 0.000000 0.000000 0.000000 0.000000 -0.000000 142.634000 88.494100 60.900100 -90.853000 16.522900 -174.931000 15.735700 0.000005 -0.000001 100.070000 82.235000 -100.331000 8.984550 -0.406207 -0.000000 7.537400 2.705400 -0.699738 16.377300 -0.000001 -0.000001 1.302170 5.106270 1.222010 6.456720 -0.000001 -0.000000 0.364894 6.735880 -2.028570 12.994200 -0.242716 4.980390 -89.514800 -1.306530 -69.624100 5.348090 -0.000007 -0.000001 -75.784400 18.053000 -2.793030 24.328600 0.000019 0.000005 1.354580 6.285770 -12.194700 22.291600 -0.000001 0.000005 4.589610 5.350460 -1.396110 12.994500 -0.242716 -4.980390 88.389200 5.786450 -74.415400 -5.348130 -0.000001 -0.000004 -58.892100 27.118900 -24.926200 -24.328900 0.000322 -0.000009 2.577240 4.891130 -27.856700 -22.291500 -0.000108 -0.000004 10.794600 5.443430 -4.401630 -2.192480 -6.469440 -0.000000 173.781000 -8.789270 -23.392900 39.081100 -0.000007 -0.000012 -0.044996 0.059107 37.282100 40.985400 -0.000006 -0.000013 6.048970 -5.520380 -60.228300 11.754300 -0.000000 0.000003 -0.000001 -0.000021 -16.578300 -2.192510 6.469440 -0.000001 169.637000 3.157380 176.887000 -39.081100 -0.002282 -0.040193 0.140220 -0.072369 62.161000 -40.985400 0.000008 0.000006 4.145140 -1.382370 -30.825700 -11.754300 -0.000006 -0.000006 -0.028210 -0.209141 -25.136900
0.000000 0.000000 0.000000 0.000000 0.000000 -0.000000 142.843000 88.971600 56.984400 -90.925800 15.265100 -174.743000 15.735700 0.000005 -0.000001 95.843400 82.280800 -96.088000 8.984550 -0.406207 -0.000000 7.597590 1.565970 -0.592641 16.377300 -0.000001 -0.000001 1.574160 5.249970 0.805917 6.456720 -0.000001 -0.000000 0.686654 7.360930 -2.422860 12.994200 -0.242716 4.980390 -89.589100 -1.123490 -69.909000 5.348090 -0.000007 -0.000001 -76.577500 24.009600 -5.300890 24.328600 0.000019 0.000005 1.311600 4.598010 -15.951600 22.291600 -0.000001 0.000005 4.356120 5.380780 -2.319310 12.994500 -0.242716 -4.980390 88.332100 5.898010 -74.179200 -5.348130 -0.000001 -0.000004 -60.568000 29.980300 -23.425100 -24.328900 0.000322 -0.000009 3.564240 8.443790 -23.008100 -22.291500 -0.000108 -0.000004 7.776130 5.421970 -3.650910 -2.192480 -6.469440 -0.000000 173.366000 -9.390470 -20.073800 39.081100 -0.000007 -0.000012 -0.061834 0.082158 36.966700 40.985400 -0.000006 -0.000013 6.567520 -4.136300 -63.139500 11.754300 -0.000000 0.000003 -0.000003 -0.000040 -16.579100 -2.192510 6.469440 -0.000001 170.733000 1.761780 171.909000 -39.081100 -0.002282 -0.040193 0.065297 -0.024089 68.819600 -40.985400 0.000008 0.000006 4.501320 -0.209780 -36.885100 -11.754300 -0.000006 -0.000006 -0.027243 -0.204537 -24.946200
